<svg xmlns="http://www.w3.org/2000/svg" width="333.152" height="78" viewBox="0 0 333.152 78">
  <g id="LOGO" transform="translate(-82.88 -70.303)">
    <path id="Path_2" data-name="Path 2" d="M0,.065C4.9,4.551,5.129,10.7,5.531,16.989l.129,2.82.16,2.6c.226,6.049.226,6.049-1.662,8.321-1.866,2.795-1.846,4.386-1.791,7.733L2.4,41.605l.076,3.263.041,3.31c.035,2.694.089,5.387.146,8.08h-14l-.25,4.113c-.3,4.873-2.277,7.995-4.75,12.087q-6.271.113-12.543.167-2.131.023-4.263.062c-2.048.037-4.1.054-6.144.068l-3.729.048c-4.414-.458-6.945-2.064-10.122-5.107-1.721-3.337-1.52-6.509-1.387-10.172.014-.706.027-1.412.041-2.14.035-1.734.089-3.468.146-5.2h6l.332-1.8c1.151-3.884,3.733-6.651,6.668-9.342,1.992-.7,3.991-1.378,6-2.025a11.864,11.864,0,0,0,2-5.062q.8-2.189,1.625-4.366l1.375-3.734-2.746.071c-10.01.15-18.992.087-27.254-6.146-3.373-4.729-4.079-8.385-4-14.175Q-56.285,2.115-48.227.636q2.735-.5,5.47-1.011,3.954-.733,7.909-1.455l2.429-.454C-9.257-6.494-9.257-6.494,0,.065ZM-21.348.373-24.84.9l-3.625.558-3.555.534c-11.9.683-11.9.683-22.32,4.655q-.061,3.037,0,6.075l-4,1.012q1.834,1.249,3.688,2.468l2.074,1.388c5.563,3,12.19,2.553,18.351,2.832,5.784.3,5.784.3,6.887,1.412a45.385,45.385,0,0,1-3,15.187h4V30.946c8.085,2.111,8.085,2.111,11,5.062a44.263,44.263,0,0,1,1.789,11.818c-.043,2.316-.043,2.316,1.211,3.37,3.336.144,6.66.043,10,0V33.984c-3.96-.334-11-.971-11-.971s-2.817-8.6-2-14.217q.405-3.211.79-6.424.593-4.89,1.21-9.776l3-1.012V-.441A62.162,62.162,0,0,0-21.348.373ZM-9.34,4.621a61.327,61.327,0,0,0-2.312,9.935l-.588,2.771c-1.3,6.49-1.3,6.49.9,12.607q2.687.082,5.375.127l3.023.071c2.764.078,2.764.078,4.6-2.223a68.236,68.236,0,0,0-.187-9.935l-.1-2.771C1.08,8.355,1.08,8.355-2.34,2.6-6.386,2.222-6.386,2.222-9.34,4.621Zm-51,2.025V8.671h2V6.646Zm38,29.362-1,5.062-1.723-.328c-5.638-.886-9.209-.706-14.277,2.353-4.04,4-6.047,8.013-8.105,13.309-.895,1.879-1.724-.642-3.724.371.181,3.481-.819,5.6,0,9.2,3.249,2.416,8.2,2.664,12.126,2.627l3.652-.02,3.8-.051,3.848-.028q4.7-.036,9.4-.1c2.648-6.025,2.648-6.025,2.75-12.466A126.137,126.137,0,0,1-16.863,42.57a11.462,11.462,0,0,0-3.476-6.561Z" transform="translate(147.34 75.5)"/>
    <path id="Path_3" data-name="Path 3" d="M0,0,3.328-.088c8.134-.064,8.134-.064,12.1,2.275,3.068,3.582,3.842,5.887,3.758,10.625-1.113,4.156-2.617,5.827-5.937,8.5h-2c2.4,5.152,2.4,5.152,6.75,8.438l2.25.563v6c-3.8.3-6.289.381-9.687-1.437C7.437,31.412,5.9,27.636,4.25,23.313h-9l-1,13-5,1c-2.5-2.5-2.237-3.977-2.252-7.385.007-.73.014-1.461.022-2.213,0-1.124,0-1.124,0-2.271q0-2.377.023-4.753c.018-2.434.021-4.868.02-7.3q.007-2.306.017-4.611c0-.732,0-1.465,0-2.219C-12.832-2.218-7.55.066,0,0ZM-5.75,7.313v9q3.94-.13,7.875-.312l2.262-.068c1.963-.1,3.917-.349,5.863-.619l2-3-1-5Z" transform="translate(319.75 73.688)"/>
    <path id="Path_4" data-name="Path 4" d="M0,0A30.331,30.331,0,0,1,7,5,23.852,23.852,0,0,1,5,9c-.99.33-2-1.431-2-1.431S-1.065,4.81-2,4.278c-4.169-1.844-9.054,2.094-9.054,2.094S-15.406,13.5-13.156,15-4.72,14.66-2,15l-.792,5.543c-.039.276-8.152-1.39-11.552-.71,0,1.65-1.633,5.578,0,8.167a7.544,7.544,0,0,0,6.187,3.8A17.056,17.056,0,0,0,1.835,28.42C4.788,26.373,3.973,23.04,4.313,21c-1.32-.33-3.515-.117-4.875-.457C-.605,18.877-.041,17.666,0,16c1-1,1.5.185,3.251.325s2.623.234,3.749.236c1.093,0,3.744-.236,3.744-.236S13,15,14,16q.061,2.5,0,5c-1.32.33-2.958-.34-4.318,0C9.352,25.95,9.34,31.9,9,37c-3,1-3,1-6,0-.33-.66.591-2.413.251-3.093C2.405,34.4.309,35.99-.562,36.5c-4.509,1.967-7.87,2.875-12.594,1.28C-18.506,35.4-19.244,34.949-21,31.8c-.873-3.225.039-5.677.438-8.985.658-4.052,4.678-4.94,2.9-6.812s-2.533-8.176-.572-10.746S-14.4.732-11.764,0A27.518,27.518,0,0,1,0,0Z" transform="translate(402 73)"/>
    <path id="Path_5" data-name="Path 5" d="M0,0C1.329,4.044.438,6.2-1,10.14l-3,1.014,3.188,1.965,1.793,1.1c5.549,2.71,12.007,2.315,18.045,2.525,5.759.27,5.759.27,7.975,2.517a26.852,26.852,0,0,1-4,15.209h4V28.391c7.368.374,7.368.374,10.438,3.485A19.241,19.241,0,0,1,40.5,42.016,33.524,33.524,0,0,0,42,50.7a22.486,22.486,0,0,1-2,5.07l-2,1.014A62.53,62.53,0,0,1,35.625,42.84c-.273-3.764-.366-4.98-2.687-8.048L31,33.461v5.07c-3,1.014-3,1.014-6.25.38-4.581-.464-6.769.377-10.75,2.662-3.589,3.535-5.2,7.621-6.973,12.278C6,55.768,5.074,54.059,2.074,55.073c.66,2.342-1.448,5.373,1.414,8.332S11.28,66.1,14,66.794c-1.485.5-2.485-.385-4,.127v2.028l2,1.014c-4.715-.162-7.115-.379-11-3.169-3.739-5.123-2.342-13.078-2-19.138H5l.332-1.8C6.483,41.968,9.065,39.2,12,36.5c1.992-.7,3.991-1.38,6-2.028a11.888,11.888,0,0,0,2-5.07q.8-2.192,1.625-4.373L23,21.293l-2.746.071c-10.01.15-18.991.087-27.254-6.155-3.2-4.5-4.552-8.6-4-14.2C-7.326-.178-3.831-.074,0,0Z" transform="translate(94 78)"/>
    <path id="Path_6" data-name="Path 6" d="M0,0A27.891,27.891,0,0,1,7,4V8C5.5,9.188,5.5,9.188,3,10A27.165,27.165,0,0,1-.812,8.563C-5.018,6.764-7.584,6.988-12,8v5l3.543.445q2.323.338,4.645.68l2.33.281c4.1.633,6.708,1.3,9.49,4.5C10.489,22.76,10.869,24.5,10,29c-2.558,4.063-5.467,7.248-10,9-7.682,1.156-13.109.157-19.453-4.3C-21,32-21,32-21,28l5-2v2c4.582,2.365,8.961,2.406,14,2l3-1,.9-4.487L2,24c-3.364-2.017-6.052-2.248-9.937-2.375-3.778-.271-5.818-.493-9.187-2.312A16.2,16.2,0,0,1-21,11c.989-4.506,3.633-6.97,7-10C-9.821-1.089-4.549-.446,0,0Z" transform="translate(191 73)"/>
    <path id="Path_7" data-name="Path 7" d="M0,0H26V7H7v8l2-1c2.041-.071,4.083-.084,6.125-.062l3.32.027L21,14v7L8,22,7,29l22,1v5c-2.738,2.738-10.792,1.5-14.5,1.625l-3.863.156-3.668.133-3.393.124C1,37,1,37,0,36c-.089-2.666-.115-5.306-.1-7.973l0-2.417q.008-3.836.031-7.673.008-2.595.014-5.189Q-.034,6.374,0,0Z" transform="translate(218 74)"/>
    <path id="Path_8" data-name="Path 8" d="M0,0H16a49.823,49.823,0,0,1,1.188,12.75c.012.773.024,1.547.037,2.344.016,6.4-.522,12.3-4.1,17.781-3.415,3.415-6.194,4.415-11,4.438C-2.255,37.209-5.394,36.682-9,34a13.144,13.144,0,0,1-1-5l4-2,3,2a20.414,20.414,0,0,0,4.688.125l2.449-.055L6,29c2.9-4.923,3.512-8.817,3.688-14.375l.1-2.231C9.873,10.6,9.938,8.8,10,7H2Z" transform="translate(271 74)"/>
    <path id="Path_9" data-name="Path 9" d="M0,0,2.172-.062C7.788-.1,11,1.076,15,4.938A18.176,18.176,0,0,1,17.25,15.25c-1.233,4.093-2.766,7.036-6.16,9.688-3.541,1.637-6.817,1.872-10.652,2l-2.1.1c-1.7.082-3.392.147-5.088.209l.48-1.729a36.754,36.754,0,0,0,.836-6.6l.127-2.422.119-2.5.131-2.547q.159-3.1.307-6.2l-3-1-1-3C-6.724-.776-2.77.02,0,0ZM.25,5.25v16c6.483.611,6.483.611,9.438-1.5,1.895-3.032,2.2-5.061,2.012-8.594-.363-2.19-.363-2.19-2.574-4.406C5.9,4.787,5.9,4.787.25,5.25Z" transform="translate(177.75 119.713)"/>
    <path id="Path_10" data-name="Path 10" d="M0,0C2.57-.469,2.57-.469,6,0a47.671,47.671,0,0,1,6.875,7.5l1.8,2.168C16.13,11.432,17.567,13.215,19,15L20,0h5V26c-5,0-5,0-6.577-1.193l-1.317-1.65L15.65,21.379,14.188,19.5l-1.521-1.879C11.431,16.091,10.214,14.547,9,13L8,25,3,26l-.06-1.956q-.143-4.4-.315-8.794l-.094-3.078L2.414,9.2l-.1-2.729A15.648,15.648,0,0,0,0,0Z" transform="translate(391 119.963)"/>
    <path id="Path_11" data-name="Path 11" d="M0,0Q3.845-.122,7.688-.187L9.873-.264C14.485-.327,17.343.15,21,3c3.38,3.928,4.663,6.956,4.391,12.043-.81,4.057-3.2,6.787-6.078,9.613C14.554,27.422,8.3,26.147,3,26V5H1ZM8,5V21c6.517.659,6.517.659,9.375-1.625A13,13,0,0,0,20,11c-1.733-3.728-1.733-3.728-5-6Z" transform="translate(292 119.963)"/>
    <path id="Path_12" data-name="Path 12" d="M0,0A14.3,14.3,0,0,1,4,3L2,7,.438,6.5A41.8,41.8,0,0,0-9,6V9l2.3.332,3.012.48,2.988.457C2.172,11.047,3.281,11.607,5,14c.639,4.313.511,6.265-2,9.875A14.865,14.865,0,0,1-8,27c-3.609-.867-6.333-1.985-8.437-5.187L-17,20l2-2c3.536.536,3.536.536,5,2,2.671.141,5.324.042,8,0l2-4-2.23-.043c-4.788-.234-7.944-.417-12.02-3.082C-16,10-16,10-16,6.375-14.656,1.839-14.656,1.839-12,0-7.843-1.386-4.254-.9,0,0Z" transform="translate(344 119.963)"/>
    <path id="Path_13" data-name="Path 13" d="M0,0H18l1,4c-1,1-1,1-3.941,1.1l-3.621-.035L7.809,5.035,5,5l1,5h8l1,5L6,17,5,21H20v5H0Z" transform="translate(361 119.963)"/>
    <path id="Path_14" data-name="Path 14" d="M0,0H5c5.859,11.719,5.859,11.719,6.92,13.848q1.107,2.205,2.238,4.4C17,23.789,17,23.789,17,26H12l-2-4q-2.376.213-4.75.438l-2.672.246A44.11,44.11,0,0,0-4,24v2H-9c.693-5.635,3.551-10.2,6.205-15.117C-.829,7.114.539,4.377,0,0ZM3,10,1,16c1.066,1.3,1.066,1.3,3.563,1.063L7,17c-.6-2.021-1.273-4.021-2-6Z" transform="translate(213 119.963)"/>
    <path id="Path_15" data-name="Path 15" d="M0,0A13.462,13.462,0,0,1,5,1,23.732,23.732,0,0,1,7.688,6.813l1.2,3.207L10,13c.645,1.344,1.3,2.683,2,4l.988-2.2C15.24,9.823,17.5,4.864,20,0h5a41.927,41.927,0,0,1-3.066,10.082L20.713,12.9l-1.275,2.908L18.15,18.779Q16.582,22.393,15,26H9Q6.45,20.07,3.938,14.125L2.467,10.707,1.09,7.445-.2,4.43C-1,2-1,2,0,0Z" transform="translate(239 119.963)"/>
    <path id="Path_18" data-name="Path 18" d="M0,0H5V26H0Z" transform="translate(275 119.963)"/>
    <path id="Path_32" data-name="Path 32" d="M0,0,2.438.063v6h-5q-.573-2.484-1-5C-2.562.063-2.562.063,0,0Z" transform="translate(122.563 79.938)"/>
    <path id="Path_35" data-name="Path 35" d="M0,0,4,1,3,6-1,5Z" transform="translate(106 124.728)"/>
    <path id="Path_38" data-name="Path 38" d="M6.188.192,9,.817l-1,3L6.25,3.255A10.826,10.826,0,0,0,0,3.817v-2C3-.183,3-.183,6.188.192Z" transform="translate(111.905 135.601) rotate(16)"/>
    <path id="Path_47" data-name="Path 47" d="M6.188.192,9,.817l-1,3L6.25,3.255A10.826,10.826,0,0,0,0,3.817v-2C3-.183,3-.183,6.188.192Z" transform="translate(111.222 132.958) rotate(-5)"/>
  </g>
</svg>
